<?xml version="1.0" encoding="utf-8"?>
<!-- Generator: Adobe Illustrator 18.0.0, SVG Export Plug-In . SVG Version: 6.00 Build 0)  -->
<!DOCTYPE svg PUBLIC "-//W3C//DTD SVG 1.1//EN" "http://www.w3.org/Graphics/SVG/1.1/DTD/svg11.dtd">
<svg version="1.1" id="Layer_1" xmlns="http://www.w3.org/2000/svg" xmlns:xlink="http://www.w3.org/1999/xlink" x="0px" y="0px"
	 viewBox="0 0 1400 980" enable-background="new 0 0 1400 980" xml:space="preserve">
<g>
	<rect fill="#FFFFFF" width="1400" height="980"/>
	<g>
		<path d="M223.4,183.4c0,0-3.2-10.4,1.1-18.1c0,0,1.3-3.2,2.7-4.3c0,0,0.2-2.5,1.6-3.6c0,0,2.9-7.2,9.4-9c0,0,4.9-6.2,9.4-7.5
			c0,0,3.8-2.5,6.4-3c0,0,13.2-14.7,20.1-26c0,0,7.1-14,26.6-26.9c0,0,2-1.3,5-1.3l0.6-4.9h-1c0,0-1.4-10-3.5-14.3
			c0,0-3.5-9.3,4.4-17.3c0,0,0.1-2.6,3.8-3.2c0,0,1.9-2.4,3.9-2.6c0,0,5.9-2.1,9.8-1.5c0,0,7.6,0.7,9.5,2.7c0,0,2.8,0.4,3.3,1.9
			c0,0,2.6,1,4.5,0.3c0,0,6.3,3.5,5.5,9.8c0,0,0.1,3.3-3.6,4.2c0,0,0.5,4.9-0.5,8.9c0,0-0.3,0.8-0.8,1c0,0-0.8,0.5,0.3,2.6l2.6,4.8
			c0,0,1,2.4-0.6,2.7l-2.6,0.1l-1,3.2c0,0-0.1,0.9-1.3,1.1c0,0,0.5,1.7-0.5,2.2c0,0-0.6,0.6-0.5,2.4c0,0,1.6,4.3-8.4,3.9
			c0,0-1.9,0.3-3.6,5.2l2,1.9c0,0,3.1,1.5,4.6,3.1c0,0,2.4,1,4.3,3.2c0,0,11,0.5,18.7,3.8c0,0,5.5,2.6,13.4,1.5c0,0,11-2,20.9,2.9
			c0,0,11.7,4,29.1,2.9c0,0,2.3-0.2,3.5-2.2l1.8-3.5c0,0,1-3.2,4.3-3.9l4.9-2.3c0,0,3-2,4.9,1.5l2.4,1.8c0,0,4.5,2.6,3.5,5.8
			c0,0,1.5,2.1,0.1,4.6c0,0,0.6,1.9-0.8,3.5c0,0,0.9,3.5-3.7,5.4l-3.6,1.7c0,0-3.7,1.7-9.8,0.3c0,0-2.9-0.7-9.6,1l-32.3,4.2
			c0,0-7.5,1.1-16.5-2.6c0,0-4-1.4-9.6,0c0,0-14.6,2.6-29.4-1.4c0,0-7.5,15.8-33.2,35.9c0,0,25.4,10.9,37.5,21.6
			c0,0,11.5,6.2,4.4,20.6l-8.5,19.1c0,0-3.9,11.9-9.7,20.8c0,0-9.3,19.8-4.9,24.1c0,0,5.3,7.1,12.9,9.4c0,0,5.5,1,7.9,1.8
			c0,0,1,0.2,3.6,0.3c0,0,3.4-0.4,3.5,2.7c0,0-0.6,6.9-19.8,8.9c0,0-4.3,0.3-10.9,0c0,0,5,3.2,14.1,5.5l8.1,1.9c0,0,6.7,2.7,2.5,7.8
			c0,0-8.3,10.3-27.4,7.9c0,0-12.3-1.8-20-1.3c0,0-16.5,0-9.2-8.4c0,0-1-12,3.8-14.9c0,0,7.1-22.5,6-37.6c0,0-3-22.6,12.6-36.9
			c0,0,2.4-1.9,0.3-3c0,0-11.6-2.9-19.4-3.1c0,0-6.3,0-8.5-0.4l-6,5.6c0,0-1.5,1.5-4-1.9c0,0-16.2-14.1-26.9-19.2
			C238,197.4,226.4,192.7,223.4,183.4z"/>
		<path d="M683.6,225.9c0,0,0,6.3-3.9,11.5c0,0-7,17.6-20,32c0,0-11.2,13.1-11.4,20.7c0,0,7.6-2.1,3.3,6.2c0,0,6.4,10.3,21.1,11.1
			c0,0,5.4,1.1,5.1,4.6c0,0,0.8,7.3-19.3,6.9c0,0-14-0.3-23.3-1.4c0,0-19.7,1.5-16-4.8c0,0,0.7-14,6.6-18.4h2.3
			c0,0,12.8-25.7,15.1-34.9c0,0,3.3-18.7,11.1-24.8c0,0,5-3.1-1-4.3l-8.8-0.2h-6.4L626.4,242c0,0-3.2,3.3-7.5-0.8L583.3,207
			c0,0-14.6-15.3-6.1-31.8c0,0,0.9-7.9,3.9-12.9c0,0,19.2-51.2,32-67.6c0,0,4.3-6.9,14-9.2c0,0,6.7-0.7,9.5-6.2c0,0-5.4-0.6-2.9-6.8
			c0,0,0.8-5.2-0.6-9.2c0,0-5.1-12.9,4.3-18.8c0,0,2.6-7.3,11.6-6.9c0,0,13.4-1.9,19.4,4.7c0,0,1.8,1.4,4.6,1.8c0,0,5.5,2.7-0.7,6.4
			l1.9,9.1c0,0,0.6,1.7-0.4,4.2c0,0-0.6,1.8,0.8,3l2.9,3.7c0,0,2.1,2.8-3.5,3l-0.8,4.1c0,0-0.2,1.9-1.4,1.8c0,0,0.6,2.4-0.6,2.5
			l-0.5,3.2c0,0,1.1,4.7-11.5,2.7l-1.4,5.3c0,0-1.4,2.7,9.7-0.3c0,0,29.4-4.4,56.4-2.4l36.3,3.2l21.9,1.2c0,0,2.6-0.3,3.2,1.9
			c0,0,0.6,1.5-7.6,2.1l-11.9,1.8l-1.9,2.1l26.1-0.4c0,0,1.9,0.8,1.1,2.2c0,0-1.4,1.7-14.7,3.2c0,0-9.6,4.9-22.6,2.1
			c0,0-11.4,0.5-22.1,4c0,0-10.3,4.4-29.9,2.8c0,0-14.3,4.1-37.7,2.8l-18.2,26.8c0,0-10.9,18-15.7,22.5c0,0-2.8,3.9,3,4.3
			c0,0,14.2,0.9,45.8,19.2l10.3,6.1c0,0,8.5,2.4,12.9,15.2c0,0,12.6,15.6,20.1,30.3c1.4,2.8,3,5.5,4.8,8c3.3,4.7,8.5,11.4,13,14.1
			c0,0-0.5-5.9,8.8,0.6c0,0,9.8,5.4,23.8-5.9c0,0,3.1-3.9,8.5-0.7c0,0,4.8,4.8-6.5,15l-28.8,26.8c0,0-6.3,3.1-7.9-4.1
			c0,0-6.3-8.7-6.8-15.7l-14.8-18c-1.3-1.6-2.8-3.1-4.3-4.4c-1.9-1.6-4.6-3.9-7.4-5.8c-2.3-1.6-4.5-3.4-6.5-5.4
			C693.5,243.7,686.9,235.9,683.6,225.9z"/>
		<path d="M1140.9,285.9c0,0-3.9-6.4-12.5-4.5L1098,285c0,0-19,1.5-30.3-3l-10.2-2.8l-11.2-2.2l-13.2,22.3l-14.8-3.6l-1.3,2.5
			c0,0-2.7,4.4,3.1,6.1c0,0,8.3,3,16.6,3c0,0,12.3,0.4,13.5,5.8c0,0,0.7,5.9-30.8,5.6l-12.2,0c0,0-29.1,3.1-23.9-10.2l3.3-11.9
			l3.6-0.2l1.5-4.1l-28.4-3.3c0,0-23.2,0.5-26.3-27c0,0-0.9-21.1,0-30c0,0-0.6-27.9,29.1-61.9c0,0,14.2-13.7,30.8-21.9
			c0,0-5.4-1-7.7-6.7c0,0,5.7-2.8,4.1-11.5c0,0-2.3-7,1.9-13c0,0,5.8-17.8,23.1-16.4l19.3,4.1c0,0,11.1,4.3,4.4,14.3
			c0,0,0.1,3.7,1,5.2c0,0,0.5,3.2,0,4l3.6,8.6c0,0,1.6,4-2.6,4.5l-3,9.9c0,0,1.5,5.8-8.8,5.2h-7.5l1.5,2.1c0,0,11.7,3.6,15.3,7.3
			c0,0,5,3.2,12.3,2.8l18.4-0.5c0,0,10.7-1.2,20.5,1.4c0,0,14.6,3.7,32.9,3.7l10.1,0.8c0,0,16.9,0.4,22.7,1.7c0,0,9,0.8,10.6,3.1
			c0,0,1.5,2.1,0,2.5l4.3,0.1c0,0,1.8,0,1.8,2.2c0,0,1.5,2.1-8.4,1.5c0,0,1.4,2.2-8.1,1c0,0-8.6-0.3-7.2,3.4c0,0-0.1,1.9,3.7,2.3
			c0,0,4,0.6,2.7,4.8c0,0-3,1.4-6.6-1.4c0,0-4.8-1-7.1-0.6c0,0-3.6,1.4-9.8-3c0,0-4.4-2-13.9,0.4c0,0-25.5,3.4-43.8-1.7
			c0,0-9.2-2.5-17.5-1.2c0,0-20,4.9-36.5-1.5c0,0-8.3,13.9-19.6,25.1c0,0-4.1,8.1-12.7,12.6c0,0-1.9,2.4-1.9,4.3l37.5-16.2
			c0,0,19.4-9.1,25.6-0.9l4.4,6.9c0,0,5.6,8.8-2.5,19.9c0,0-4.1,4.8-5,7.6c0,0,16.1,3,20.8,8.3c0,0,7,3,12.3,3
			c0,0,18.7-0.3,34.5,3.6c0,0,13.8,2.8,23.9,0.3c0,0,7.1-2.4,10.1-2.4c0,0-0.5-4.1,6.4-2.8c0,0,14.8-2.2,25.5-8.9
			c0,0,3.3-4.3,6.8-5.6c2.1-0.8,4.4,0.3,5.2,2.4c1.2,3.1,1.5,9.1-7.2,17.7l-23.9,24.2C1162.7,286.6,1152.2,304.3,1140.9,285.9z"/>
		<path d="M384.9,379.9l-2-1.9c-3.3-2.6-2.4-4.7-2.4-4.7c1.2-2.8,0-4.4,0-4.4l-1.6-7.1c2-6.4-12.3-10.6-12.3-10.6
			c-16.6-4.6-24,4.4-24,4.4c-9.5,11-2.7,26-2.7,26l0.5,6.2c0.1,5.6-6.1,7.8-6.1,7.8c-20.5,7.4-37.8,30.3-37.8,30.3
			c-15.6,19.6-41.2,35.2-41.2,35.2c-7.9,4.7-13.5,15.6-13.5,15.6c-12.8,21.4,6.1,30.3,6.1,30.3c10.2,5.6,24.1,22.1,24.1,22.1
			c1.4,2.1,3.5,1.1,3.5,1.1l11.2-7c5.3,1.1,19.6,2.6,19.6,2.6l0.4,10.1c0.3,7.8-0.7,12.4-0.7,12.4c-2.8,6.3-1.2,16.6-1.2,16.6
			l0.2,13.5l-7.5,16.3c-5.1,2.6-6.8,13-6.8,13c-8.1,4.4-7.4,19.8-7.4,19.8c-4.9,7.7,13.1,7,13.1,7h33.1c22.6-3,19.4-12.1,19.4-12.1
			c-0.8-3.7-9.5-2.7-9.5-2.7c-2.8-0.2-4.2-1.6-4.2-1.6l16.9-11.8c-0.3-2.4-6.7-1.6-6.7-1.6c-6.4,0.1-10.5-1.7-10.5-1.7
			c-1.7-1.4-11.6-7.5-11.6-7.5c0.8-2.8-3.3-8.7-3.3-8.7c0.9-3.8,7.4-13.3,7.4-13.3c15.1-15.1,24.2-37.4,24.2-37.4
			c6.6-8.3,4.9-16.3,4.9-16.3c1.9-6.2-2-11.6-2-11.6c-6.5-8.8-26.1-18-26.1-18l-0.1-16c2.4-2.4,3.9-10.6,3.9-10.6l5.1-7.2
			c9.1-1.6,11-7.6,11-7.6c3.2-9.5,3.1-27.6,3.1-27.6c-0.8-7,3.9-9.5,3.9-9.5c7.8-4.8,10.2-11.6,10.2-11.6c0.5-4.2,4.3-2.3,4.3-2.3
			c9.3,5.1,10-0.6,10-0.6l0.5-4.5c2.1-1.2,0.9-3,0.9-3c1.3-0.6,0.8-2,0.8-2l-0.1-3C387.4,383.1,384.9,379.9,384.9,379.9z
			 M305.9,479.6l-4.6-3.6c3.5-1.8,5.3-7.1,5.3-7.1C307.1,473.4,305.9,479.6,305.9,479.6z"/>
		<path d="M595,529.4c0,0,11.5-4.6,9,5.3c0,0,2.4,6.9-0.3,14.4c0,0,11.6,10.9,26.8,19.4c0,0,17.1,5.3,24.5,20.4
			c0,0,2.9-20.9,10.4-33.6c0,0,3.8-8.8,1.6-15.7c0,0-4.6-13.5,4.6-24.2c0,0,3.8-9.3,7-12.3c0,0,0-3,0.7-5.2l-5.2-44.2
			c0,0-4.3-11.6-0.2-21.3l4.1-11.8c0,0,2.5-6,7.7-10.5c0,0,4.5-4.6,3.7-17.1l-3.6-14.5c0,0-3.2-13.1,4.8-18.7c0,0,3.9-7.9,20.3-4.7
			c0,0,13.1,2.3,12.8,12.1l3,8.9c0,0,0.9,2-0.7,4.4c0,0-1.1,1.5,0.2,3.5l2.5,4.7c0,0,1.3,2.2-3.2,2.4l-0.2,2.6c0,0-0.2,1.7-1.3,2.2
			c0,0,0.2,1.3-1.2,1.7c0,0-0.4,1.4-0.2,2.7c0,0,1.5,4.2-4,4.5l-4.8,0.3c0,0-1.9,0.8-4.2,5.6c0,0-2.8,4.8,0.3,7.6
			c0,0,17.2,16.9,20.7,28.6c0,0,1.6,6.9,0,12.8c0,0,0.5,21.9-3.6,47.4c0,0,1.5,0,2.9,1c0,0,37.9,4.5,58.1,14.3c0,0,8.8,3.9,5.8,15
			l-0.8,4.1c0,0,0.2,5.9-3.2,9.8c0,0-2.3,4.7-4,9.6c0,0-5,12.4-15.1,27.8c0,0-7.9,15.2-6.6,20.9c0,0,3.2,9.2,15.2,13.3
			c0,0,6.7,2.2,10.4,2.2c0,0,6.6,0.2,6,4.6c0,0,0.7,5.1-14.9,4.7l-35.4,0c0,0-16.9-0.4-12.2-9.4c0,0,1.3-9,6.7-13.5
			c0,0,0.9-0.4,2.1,1.2c0,0,10-22.4,11.8-33.4c0,0,1.2-17.6,3.8-22.2c0,0-15.9-1.2-20.4-2.5l1.3,15.4l-3.7,4l-12.6,1.5l-4.3-3
			l-1.5-9.2l-1,0.1c0,0-1.2,11.1-6.2,6.2c0,0-12.9,21.3-23.8,31l-7.3,10.4c0,0-7.6,16.1-21.9,11.4l-8.1-3.8c0,0-4.2-3.4-6.5-7.8
			c0,0-3.6-4-5.9-5.5c0,0-15.8-13.1-24.8-25.8c0,0-10.6-14.1-21.7-19.1v5.5h-20.3v68.4h-17.1v-68.3h-22.6v-14.3H547
			c0,0-6.9-3.8,3.6-8.1C550.7,543.7,575.1,535.2,595,529.4z"/>
		<path d="M1072.1,760.9c0,0-3-1.8-4.6,3.6c0,0-3,21.7-1,35.8c0,0,1.4,8,8.6,17.2c0,0,2.5,2,2,5.3c0,0,8.6,7.2,8,14.1l0,3.6
			c0,0,3.4,4.4,1.4,9.1c0,0,5.6,14.6-24.5,32.8c0,0-6.7,15.9-12.1,21.1c0,0,17-3.2,27.6-1c0,0,13,1.5,25.3-1.9l4.7-1.9
			c0,0-0.5-2.3,4.1-2.4c0,0,10.3-0.3,13.5,1.1c0,0,5.5,0.6,3.9,10.8c0,0-1.4,12.6,1.3,19.4c0,0,2.9,5.4,0,8.1c0,0-3.9,3.6-15.8,1.5
			c0,0-3.2,0-0.7-5.6c0,0-0.8-7.6-7-9.1c0,0-6.7-0.4-5-4.6c0,0-8.4-0.8-23.4,5.1c0,0-16.4,9.1-43.5,9.7c0,0-21.3,3.7-21.7-21.2
			c0,0-1.2-2.4-1.2-5.2c0,0-5.3,9.7-7.5,14.7l0.6,4.7l1.1,8.3c0,0,5,5.9-11.1,6.6l-14.4,1.4c0,0-15.6,1.4-21.5,0.8
			c0,0-7.4-1.3-2.2-6.3c6.1-5.7,10.7-7.4,15.2-8.9c0,0,3.8-1,7.8-2c3.5-0.9,6.3-3.8,6.9-7.4c0.4-2.1,1.5-3.9,4.4-3.2
			c0,0,3.8-2.7,1.9-18.3c0,0-1.4-11,0.5-17.4c0,0-3.2-8.6-0.3-15.2c0,0-0.8-10.7,16.6-15.8l9.3-3.4l0.5-5.4c0,0-8.5-36.3-23.7-53
			c0,0-10.7-13.7-15.8-18c0,0-5.1-4.2-11.2-0.3c0,0-14,6.6-36.1-3.8c0,0-28.7,0-48.8-8.6l-14-5.8c0,0-8.4,1.8-17.3,0
			c0,0-10.3,1.4-12.1-1.1c0,0-2.4-3.8,7.2-4.1c0,0,6.4-0.8,0.9-3.6l-10.8-2.5l-6.1-1c0,0-1.4-0.3-1-2.3c0,0-2.5-0.3-1.9-2.4
			c0,0,0.2-1,3.1-0.8c0,0-0.7-2.2,2.8-1.6c0,0,15.1,2.5,25.3,5.5c0,0,13.3,3.8,18.5,3.8c0,0,18.2,1.2,27.2,0.7
			c0,0,15.4-1.2,24.1,1.9c0,0,18.3,7.5,32.9,0.7c0,0,9.8-4.8,18.5-1.4c0.8,0.3,6.9,0.7,11.9-2.2l10.3-5.3l-1.4-9.9l-3.9-3.1
			c0,0-6.9-7.7-4.2-10.6c0,0-6.4-28.5,15.8-30.4c0,0,22.2-3.3,23.9,23.8c0,0,4.4,0.3-1.7,11.1c0,0-2.5,3.3-2.1,6.1l0.7,6.4l0.1,2.8
			c0,0,10.2,1.6,19.6,3.6c0,0,5.9,1.5,12,0.5c0,0,12.4-0.7,23.2,5.9c0,0,12.9,4.4,28,1.2c0,0,13-3.7,27.3-1.2c0,0,25.9,3.9,40.4-2.2
			c0,0,9.8-4.4,15.9-4.6l13.2-0.6c0,0,1.4,0.2,1.5,1.7l0.3-0.1c1-0.2,1.9,0.6,1.8,1.6c0,0,0,0,0,0c0,0,0.5,1.4-4.1,1.7
			c0,0,0.8,2.6-5.9,2.5l-7.5-0.1l6.3,3c0,0,2.7,2.5-1.6,3.2c0,0-2.4,2.4-9.6,1.6c0,0-9.1,4.2-17,4.2c0,0-4.7,0.1-9.1,2.3
			c0,0-18.8,9.4-51.6,6.5c0,0-4.2-0.7-9.1,0.8C1105,762,1088.1,772,1072.1,760.9z"/>
		<path d="M274.1,907.1c0,0,4.1,10.6,4.1,15.3c0,0,6.6,10.2,1.1,13.1c0,0-1.2,1.4-8.1,1.7c0,0-5.1,4.1-8.7,3.8c0,0-3.1,3.1-9.4,1.3
			c0,0-3.9,1.2-5.2-0.6c0,0-1.5,0.4-2.3-0.7c0,0-2.2-0.5-1.2-2.7c0,0-0.9-3.6,3-4.3c0,0,3.8-0.4,7.8-4l6.4-6.7c0,0,1.9-2.4-1.5-6.3
			l-25.7-30.4c0,0-12.4-14.1-8.5-32.4c0,0-1.8-14.2,8.3-18.6c0,0,11.6-7.5,27,2.1l-6.7-15.4c0,0-7.2,0.4-10.1-1.3
			c0,0-14.8-3.7-20.1-13.6c0,0-11.8-3.4-11.8-12.5c0,0-3.9-5.2-1.9-7.9l2.3-1.9c0,0,0.9-1.3,2.4-0.9l0.5-2.8l-2.3-6.5
			c0,0-1.1-3.2,1.4-4.5c0,0,4.3-2.6,6.2,5.4c0,0,0.3,3.8,2.4,5.6c0,0,5.8,4.9,6.1,10.7c0,0,0.1,1.7,5.2,1.1l6.1-1
			c0,0,8.3-9.4,13-11.2c0,0,18.4-14.4,27.7-17.4l0.7-8.5c0,0-11.8-13.9-2.9-15.6c0,0-7.9-25.8,20.9-26.3c0,0,24.3-0.7,19.3,28.2
			c0,0,8.1-0.2-3.3,13.8l1,8c0,0,4.9,1.2,8.1,4c0,0,17.5,6.6,23,13.1c0,0,7.9,4.9,9.7,6.6c0,0,1.1-0.9,2.7-0.2c0,0-1.9-3.4,0-4.6
			c0,0,0.8-1.1,4.6,0.5c0,0,0.2-3,2.5-3c0,0,2.4-5.1,5.4-5.5c0,0,2.7-0.5,2.5,3.2c0,0,0.2,2.7-2.6,5.7c0,0,2.7,3.3,2.1,7.7
			c0,0,1.4,5.8-5.6,10.6c0,0,2.6,12.9-6.9,18.2c0,0-7.2,6.3-14.6,0.7c0,0-3.4,7.3-7.2,12.7l-4.3,17.7c0,0,7.9,3.8,10.4,10.8
			c0,0,7.1,2.8,9.9,4.9c0,0,9.2,1.5,12.2,3.7c0,0,23.5,8.3,24.9,11.4l15.1,8.8c0,0,13.5,3.4,17.8,8.9c0,0,35.8,9.7,53.7,14.4
			c0,0,23.4,4.2,27.1-5c0,0,0.6-12.9,2.9-18.4c0,0-1.8-7.7,1.2-9.2c0,0,2.6-1,4.5,1.2c0,0,3-1.9,3.9,1.2c0,0,2.1,0.1,2.2,1.9
			c0,0,2.6,0,2.8,3.6c0,0,3.5-0.5,2.3,4.7c0,0,2.1,3.8,1.3,12c0,0-1.6,15.5-0.7,20.3c0,0,3.3,11.3-4.5,12.3c0,0-8,0.6-16.3-1.9
			c0,0-26.4-2.8-37.6-2.1c0,0-30.2,4.5-42.8-6l-12.5-6.5c0,0-5.6-2.5-13.2-3.3c0,0-20.8-1.7-33.5-1.5l-18.1,14c0,0-3,3-8.9-3.2
			l-30.7-23.8c0,0-6.7-5.1-18.2-1.6l-18.1,3.5L274.1,907.1z"/>
		<path d="M756,889.1c0,0,9-19,8.1-33.2c0,0,3.6-16.7-5.4-24.4c0,0-7.7-9.4-26.3-13.2c0,0-4-4.8-8.6-7.5c0,0-0.5-4.3-1.2-6.6
			c0,0-0.8-2.3,0.1-5.2c0,0,1.2-3.5,2.3-7.9c0,0,5.6-5.5,7.4-13.8c0,0,5.6,0.5,8.2-4.2c0,0,5-4.5,3.8-10.4c0,0,4.5-5.4,1.5-12.3
			c0,0,3.2-8.4-5-13.4c0,0-2.8-2.9-10.9-2.3c0,0-13.9-7.4-18.2-9.2c0,0-6.8-3.6-5.8-11.8c0,0,2-4,1.5-6.3c-0.5-2.3,4.5,4.5,5-4.7
			c0,0,0.7-5.9-1.5-5.9c0,0,1.3-12.8-2-16.6c0,0-3.3-10-15.6-10h-0.1c-12.3,0-15.6,10-15.6,10c-3.4,3.8-2,16.6-2,16.6
			c-2.2,0.1-1.5,5.9-1.5,5.9c0.5,9.2,5.5,2.4,5,4.7c-0.5,2.3,1.5,6.3,1.5,6.3c1,8.2-5.8,11.8-5.8,11.8c-4.2,1.8-18.2,9.2-18.2,9.2
			c-8.1-0.6-10.9,2.3-10.9,2.3c-8.2,5-5,13.4-5,13.4c-2.9,6.9,1.5,12.3,1.5,12.3c-1.2,5.9,3.8,10.4,3.8,10.4
			c2.6,4.7,8.2,4.2,8.2,4.2c1.8,8.3,7.4,13.8,7.4,13.8c1.1,4.3,2.3,7.9,2.3,7.9c0.9,2.9,0.1,5.2,0.1,5.2c-0.8,2.3-1.2,6.6-1.2,6.6
			c-4.6,2.7-8.6,7.5-8.6,7.5c-18.6,3.8-26.3,13.2-26.3,13.2c-9,7.7-5.4,24.4-5.4,24.4c-1,14.2,8.1,33.2,8.1,33.2l11.3,24
			c1.7,6.1-2.2,11.4-2.2,11.4c-5.2,7.7-11.6,8.8-11.6,8.8c-4.5,1.6-2.2,4.9-2.2,4.9c-0.1,1.9,2.7,2.4,2.7,2.4
			c2.2,1.2,4.9,0.5,4.9,0.5c3.7,4,8.8,0,8.8,0c3.6-0.4,4.5-2.9,4.5-2.9c0.9-2.2,6.4-2.1,6.4-2.1c7.5-0.8,4-8.2,4-8.2l-1.2-5.4
			c1.4-5-0.7-8.1-0.7-8.1c-3.8-9.2-2.9-20.9-2.9-20.9c3.3-16.9-6.6-33.4-6.6-33.4c-2.6-5.7,0.6-3.5,0.6-3.5c11.1,7.3,23.3,1,23.3,1
			c6.8-3.2,15.1-5.6,15.1-5.6c3.3-0.7,6.1-0.9,8.4-1c2.3,0.1,5,0.3,8.4,1c0,0,8.3,2.4,15.1,5.6c0,0,12.1,6.3,23.3-1
			c0,0,3.2-2.2,0.6,3.5c0,0-9.9,16.5-6.6,33.4c0,0,1,11.7-2.9,20.9c0,0-2.1,3.1-0.7,8.1l-1.2,5.4c0,0-3.6,7.4,4,8.2
			c0,0,5.6-0.1,6.4,2.1c0,0,0.9,2.5,4.5,2.9c0,0,5.1,4,8.8,0c0,0,2.7,0.8,4.9-0.5c0,0,2.8-0.5,2.7-2.4c0,0,2.3-3.3-2.2-4.9
			c0,0-6.4-1.2-11.6-8.8c0,0-3.9-5.3-2.2-11.4L756,889.1z"/>
		<path d="M1097,391c0,0-13.7-11.5-57.6-10.2c0,0-4.2-3-6.8-3.5c0,0-0.2-16.2-20.2-18c-20,1.8-20.2,18-20.2,18
			c-2.7,0.5-6.8,3.5-6.8,3.5c-43.9-1.3-57.6,10.2-57.6,10.2c-6.2,1.8-1,12.8-1,12.8c2.7,16.2,14.9,23.6,22.5,26.7
			c3.6,1.5,8.7,2.1,9.7,2.5c3.5,1.2,6.1,4.5,6.3,8.3c1,18.1,11.3,39,11.3,39c4.8,8.7,2.9,18.1,2.9,18.1c-3.7,0.2-5.7,4.1-5.7,4.1
			l-7.8,2.4c-20.2,10.5-18,28.2-18,28.2c-8,16.2,0.2,44.7,0.2,44.7c1.6,7.8,3.1,23.6,3.1,23.6c-4.4,4-5.1,13.3-5.1,13.3l-2.5,3.3
			c-2.2,4-2.8,8.8-2.8,8.8c-2,8.8,10.3,7.3,10.3,7.3c12-0.3,13.2-2.2,13.2-2.2c4.8-4.7,2.5-13.8,2.5-13.8c1.5-5.8-1.3-15.8-1.3-15.8
			c-3.5-15.8,1.8-31.4,1.8-31.4c3-9.5,3.1-22.3,3.1-22.3c2.8,2.8,8.8,2.2,8.8,2.2c11.5,12.2,13.7,6,13.7,6
			c2.4-9,10.2-11.3,15.2-11.9c2.6-0.3,6.4-0.3,9.1,0c5,0.6,12.5,3.1,14.9,11.9c0,0,2.2,6.2,13.7-6c0,0,6,0.6,8.8-2.2
			c0,0,0.1,12.8,3.1,22.3c0,0,5.3,15.5,1.8,31.4c0,0-2.8,10-1.3,15.8c0,0-2.3,9.2,2.5,13.8c0,0,1.1,1.8,13.2,2.2
			c0,0,12.3,1.5,10.3-7.3c0,0-0.7-4.8-2.8-8.8l-2.5-3.3c0,0-0.7-9.3-5.1-13.3c0,0,1.6-15.8,3.1-23.6c0,0,8.2-28.5,0.2-44.7
			c0,0,2.2-17.8-18-28.2l-7.8-2.4c0,0-2-3.9-5.7-4.1c0,0-1.9-9.4,2.9-18.1c0,0,10.2-20.9,11.3-39c0.2-3.9,2.8-7.1,6.3-8.3
			c1-0.3,6-1,9.7-2.5c7.6-3.1,19.8-10.5,22.5-26.7C1098,403.8,1103.2,392.8,1097,391z M988.3,416.8c-5.2-5.5-28.4-15.2-28.4-15.2
			c-4.5-2-1.8-3.5-1.8-3.5c8.7-0.7,24.5-4.2,24.5-4.2c2,1.7,9.3,2.7,9.3,2.7c0.2,2.3,3.3,5,3.3,5c0,2.3,2,10.7,2,10.7
			C993.1,419,988.3,416.8,988.3,416.8z M1064.8,401.6c0,0-23.2,9.7-28.4,15.2c0,0-4.8,2.2-9-4.5c0,0,2-8.3,2-10.7c0,0,3.2-2.7,3.3-5
			c0,0,7.3-1,9.3-2.7c0,0,15.8,3.5,24.5,4.2C1066.6,398.1,1069.3,399.7,1064.8,401.6z"/>
	</g>
</g>
</svg>
